<?xml version="1.0" standalone="no"?>
<!DOCTYPE svg PUBLIC "-//W3C//DTD SVG 20010904//EN"
 "http://www.w3.org/TR/2001/REC-SVG-20010904/DTD/svg10.dtd">
<svg version="1.0" xmlns="http://www.w3.org/2000/svg"
 width="1200.000000pt" height="1059.000000pt" viewBox="0 0 1200.000000 1059.000000"
 preserveAspectRatio="xMidYMid meet">

<g transform="translate(0.000000,1059.000000) scale(0.100000,-0.100000)"
fill="#000000" stroke="none">
<path d="M0 5295 l0 -5295 6000 0 6000 0 0 5295 0 5295 -6000 0 -6000 0 0
-5295z m6130 4354 c230 -14 394 -38 685 -100 99 -20 333 -84 420 -114 105 -36
223 -79 250 -90 17 -7 55 -23 85 -35 113 -46 309 -140 410 -197 19 -11 62 -35
95 -53 144 -80 482 -317 602 -422 246 -217 449 -430 592 -623 29 -38 58 -77
64 -85 105 -132 305 -486 389 -685 98 -234 185 -518 219 -715 49 -283 63 -479
55 -750 -3 -113 -8 -216 -10 -230 -2 -14 -10 -65 -16 -115 -66 -504 -269
-1040 -552 -1460 -243 -361 -503 -642 -834 -904 -71 -56 -135 -106 -142 -112
-31 -26 -227 -152 -342 -221 -138 -82 -509 -268 -536 -268 -3 0 -21 -7 -40
-15 -19 -8 -49 -22 -68 -30 -46 -20 -348 -119 -421 -138 -178 -46 -231 -59
-274 -67 -25 -4 -84 -15 -131 -24 -312 -59 -433 -68 -1005 -73 l-529 -5 -96
-67 c-192 -136 -337 -223 -545 -325 -263 -130 -430 -193 -705 -267 -277 -74
-741 -104 -844 -54 -57 27 -96 94 -96 162 0 59 14 93 79 191 129 194 222 400
265 585 21 92 21 294 0 379 -40 158 -135 305 -288 447 -235 219 -420 416 -549
586 -42 55 -84 111 -95 125 -25 33 -152 233 -187 296 -111 196 -221 440 -281
624 -8 25 -21 65 -29 90 -21 66 -76 277 -86 335 -87 485 -87 850 0 1330 33
180 133 510 203 664 111 247 201 415 311 581 66 99 182 258 223 306 11 12 39
46 64 75 260 312 650 636 1042 868 247 145 691 343 903 401 17 5 55 16 85 25
81 24 266 70 335 84 33 7 78 17 100 22 70 16 260 43 428 59 280 28 468 31 797
9z"/>
<path d="M5545 9295 c-5 -3 -68 -9 -140 -15 -144 -11 -266 -25 -335 -39 -25
-5 -74 -15 -110 -21 -388 -70 -867 -244 -1233 -449 -123 -68 -432 -272 -457
-301 -3 -3 -25 -21 -50 -40 -169 -129 -429 -386 -575 -570 -148 -186 -308
-439 -398 -631 -86 -184 -96 -208 -157 -389 -99 -296 -150 -615 -150 -945 0
-239 36 -559 80 -710 5 -16 14 -50 20 -75 108 -407 311 -812 584 -1158 112
-143 186 -224 336 -367 238 -227 317 -312 382 -412 72 -110 128 -229 151 -318
9 -33 22 -82 29 -110 17 -66 17 -327 0 -425 -26 -142 -85 -312 -166 -479 -20
-41 -36 -76 -36 -78 0 -28 451 62 542 108 10 5 23 9 30 9 13 0 99 33 186 72
24 10 61 26 83 35 41 16 238 115 315 158 84 47 213 131 339 220 72 51 148 98
170 104 25 6 237 12 575 15 294 2 578 9 630 15 251 29 490 70 630 108 30 8 71
18 90 22 19 4 51 13 70 19 230 75 320 106 345 117 17 7 62 25 100 40 166 67
422 200 605 315 78 49 248 167 260 180 3 3 25 21 50 40 153 117 399 354 534
515 239 285 428 602 554 925 64 165 120 357 151 525 53 280 68 502 52 758 -6
100 -16 211 -22 247 -70 440 -179 754 -397 1142 -35 62 -105 172 -119 186 -7
8 -18 23 -24 34 -27 50 -163 221 -268 338 -117 129 -203 214 -341 336 -119
104 -421 317 -570 403 -292 167 -754 356 -1005 411 -22 5 -69 16 -105 25 -182
46 -387 77 -695 105 -103 9 -518 13 -540 5z"/>
</g>
</svg>
