<?xml version="1.0" standalone="no"?>
<!DOCTYPE svg PUBLIC "-//W3C//DTD SVG 20010904//EN"
 "http://www.w3.org/TR/2001/REC-SVG-20010904/DTD/svg10.dtd">
<svg version="1.0" xmlns="http://www.w3.org/2000/svg"
 width="900.000000pt" height="900.000000pt" viewBox="0 0 900.000000 900.000000"
 preserveAspectRatio="xMidYMid meet">

<g transform="translate(0.000000,900.000000) scale(0.100000,-0.100000)"
fill="#000000" stroke="none">
<path d="M4380 8360 c-169 -37 -223 -56 -385 -137 -336 -168 -633 -504 -927
-1048 -78 -144 -328 -655 -328 -671 0 -2 -16 -38 -35 -80 -19 -41 -35 -81 -35
-88 0 -6 -4 -16 -9 -21 -4 -6 -36 -80 -70 -165 -34 -85 -66 -164 -71 -175 -4
-11 -15 -36 -23 -55 -79 -186 -88 -234 -62 -329 33 -126 110 -235 307 -437 76
-77 138 -143 138 -147 0 -6 -87 -67 -300 -212 -63 -43 -149 -103 -190 -132
-41 -29 -113 -78 -160 -110 -113 -75 -215 -179 -278 -283 -30 -48 -81 -158
-118 -255 -36 -93 -72 -183 -79 -200 -7 -16 -57 -145 -110 -285 -119 -316
-154 -405 -172 -450 -8 -19 -19 -44 -23 -55 -71 -170 -106 -411 -82 -560 12
-75 39 -171 58 -209 7 -16 14 -32 14 -36 0 -4 22 -47 50 -96 54 -98 140 -214
239 -323 l63 -71 -463 -1 c-419 0 -467 -2 -493 -18 -43 -25 -68 -63 -73 -115
-5 -38 -1 -53 21 -86 47 -72 28 -70 681 -70 l583 0 50 -53 c28 -28 64 -69 80
-89 l29 -37 6 -195 c6 -216 15 -253 71 -287 30 -18 96 -19 2211 -19 2041 0
2182 1 2205 17 65 45 68 55 75 283 l7 205 32 35 c18 19 52 59 75 88 l43 52
571 0 c518 1 575 3 607 18 105 52 106 201 0 254 -32 16 -76 18 -473 18 l-437
0 86 97 c123 140 215 279 277 423 14 32 29 82 56 186 16 61 13 248 -5 334 -23
116 -35 157 -62 220 -6 14 -61 158 -122 320 -62 162 -116 306 -122 320 -6 14
-14 34 -18 45 -7 19 -33 87 -50 130 -4 11 -17 40 -28 65 -11 25 -23 56 -26 70
-4 14 -11 34 -15 45 -5 11 -13 31 -18 45 -109 272 -206 400 -397 525 -28 19
-76 52 -106 74 -56 40 -361 249 -482 330 l-66 45 150 155 c150 156 234 263
278 356 33 68 40 217 15 279 -10 22 -21 51 -26 64 -5 12 -13 32 -19 45 -5 12
-19 47 -31 77 -11 30 -26 69 -34 85 -7 17 -27 66 -45 110 -18 44 -41 99 -51
122 -11 23 -19 44 -19 47 0 3 -13 35 -30 71 -16 36 -30 67 -30 69 0 3 -25 58
-56 123 -31 65 -70 147 -86 183 -450 966 -857 1405 -1448 1559 -116 30 -192
33 -290 11z m186 -280 c181 -29 366 -125 558 -287 155 -132 342 -381 501 -668
108 -196 135 -248 131 -252 -3 -3 -265 254 -582 571 -510 510 -580 576 -607
576 -42 0 -67 -25 -67 -69 0 -34 34 -70 726 -761 410 -410 734 -741 745 -763
34 -64 117 -266 112 -271 -17 -17 -133 92 -765 723 -389 388 -719 710 -733
716 -43 16 -79 -11 -83 -61 l-3 -41 607 -606 c334 -334 605 -609 603 -612 -3
-3 -30 1 -60 9 -30 8 -86 19 -125 26 l-72 13 -428 428 c-358 358 -433 429
-456 429 -38 0 -68 -32 -68 -72 0 -30 34 -68 350 -387 193 -195 350 -356 350
-358 0 -2 -15 -2 -32 1 -18 3 -69 8 -112 12 l-79 6 -190 184 c-162 158 -193
184 -220 184 -40 0 -67 -26 -67 -64 0 -26 20 -52 119 -157 l120 -126 -337 -6
c-316 -6 -397 -11 -612 -38 -164 -21 -396 -61 -490 -86 -52 -14 -113 -29 -135
-34 -62 -15 -192 -61 -228 -80 -10 -5 -22 -7 -27 -4 -8 5 1 30 56 153 13 29
24 55 24 57 0 2 12 30 26 62 143 315 243 512 397 780 175 307 392 557 603 699
62 40 115 74 118 74 3 0 31 12 63 26 91 41 95 42 153 58 52 14 91 21 135 24
11 1 47 -3 81 -8z m878 -2139 c53 -31 53 -36 8 -218 -59 -238 -120 -418 -201
-596 -17 -37 -31 -70 -31 -74 0 -17 -58 -79 -116 -122 -149 -113 -455 -232
-604 -234 -44 -1 -185 27 -225 43 -11 5 -49 18 -85 30 -127 43 -323 160 -386
231 -20 23 -45 77 -124 264 -49 116 -180 574 -180 629 0 8 19 26 43 40 l42 26
915 -1 c844 0 917 -2 944 -18z m1111 -1882 c42 -37 41 -31 25 -394 -13 -300
-29 -758 -40 -1170 -24 -853 -31 -1009 -43 -1017 -7 -4 -912 -7 -2012 -5
l-2000 2 -6 170 c-4 94 -11 334 -17 535 -6 201 -16 496 -22 655 -10 292 -25
722 -35 1021 -5 154 -5 162 16 188 12 15 31 32 43 36 11 5 929 9 2038 9 l2017
1 36 -31z m-58 -2941 l-4 -73 -1997 -3 -1996 -2 0 75 0 75 2001 0 2001 0 -5
-72z"/>
<path d="M4518 5638 c2 -101 7 -199 11 -218 l7 -35 92 -3 c57 -2 92 1 92 7 0
12 -30 81 -138 311 -22 47 -42 93 -45 103 -17 47 -22 1 -19 -165z"/>
<path d="M4305 3670 c-254 -54 -462 -217 -577 -455 -41 -85 -63 -161 -80 -277
-10 -76 -10 -102 5 -193 20 -127 64 -244 124 -333 41 -62 44 -70 34 -98 -6
-17 -11 -58 -11 -92 0 -57 3 -66 34 -100 l34 -37 119 -5 118 -5 8 -113 c4 -62
12 -124 17 -138 l10 -24 327 0 c181 0 333 4 339 8 16 10 26 61 33 172 l6 95
115 5 c161 8 193 33 191 155 0 60 -12 91 -44 116 -19 16 -19 17 20 75 22 32
48 71 57 87 16 26 20 27 91 27 52 0 75 4 75 12 0 7 -23 35 -51 64 l-50 51 12
68 c7 40 10 120 7 196 l-5 128 49 48 c26 26 47 52 45 57 -2 5 -32 9 -67 10
-61 1 -65 3 -80 31 -111 216 -219 325 -412 413 -152 70 -323 89 -493 52z m718
-812 c3 -12 4 -25 2 -29 -7 -10 -185 -9 -185 2 0 5 8 9 18 10 9 0 40 9 67 19
70 25 92 24 98 -2z m-888 -28 c28 -6 86 -15 130 -21 44 -5 91 -14 103 -20 21
-8 23 -14 17 -52 -16 -98 -104 -197 -176 -197 -53 0 -137 121 -160 231 -13 58
-7 83 18 75 10 -3 41 -10 68 -16z m617 -152 l3 -133 50 -5 c43 -5 46 -7 24
-14 -47 -14 -138 20 -190 71 -52 50 -72 98 -67 158 3 39 4 40 48 46 25 3 64 7
87 7 l42 2 3 -132z"/>
</g>
</svg>
